<?xml version="1.0" standalone="no"?>
<!DOCTYPE svg PUBLIC "-//W3C//DTD SVG 20001102//EN"
"http://www.w3.org/TR/2000/CR-SVG-20001102/DTD/svg-20001102.dtd">
<svg xmlns="http://www.w3.org/2000/svg" width="768" height="178"
	xmlns:sodipodi="http://sodipodi.sourceforge.net/DTD/sodipodi-0.dtd">
<desc>wmf2svg</desc>
<text x="0" y="0" style="font-family:serif; font-style:normal; font-weight:normal; font-size:177.999985px; fill:black" transform="matrix(1.000000 -0.000000 0.000000 1.000000 124.790382 137.059998)"
	>(</text>
<text x="0" y="0" style="font-family:serif; font-style:normal; font-weight:normal; font-size:177.999985px; fill:black" transform="matrix(1.000000 -0.000000 0.000000 1.000000 284.758270 137.059998)"
	>)</text>
<text x="0" y="0" style="font-family:serif; font-style:normal; font-weight:normal; font-size:177.999985px; fill:black" transform="matrix(1.000000 -0.000000 0.000000 1.000000 409.805420 137.059998)"
	>(</text>
<text x="0" y="0" style="font-family:serif; font-style:normal; font-weight:normal; font-size:177.999985px; fill:black" transform="matrix(1.000000 -0.000000 0.000000 1.000000 648.345032 137.059998)"
	>)</text>
<text x="0" y="0" style="font-family:Liberation Serif,Times New Roman,serif; font-style:normal; font-weight:normal; font-size:135.888657px; fill:black" transform="matrix(1.000000 -0.000000 0.000000 1.000000 164.076233 127.151443)"
	>0</text>
<text x="0" y="0" style="font-family:Liberation Serif,Times New Roman,serif; font-style:normal; font-weight:normal; font-size:135.888657px; fill:black" transform="matrix(1.000000 -0.000000 0.000000 1.000000 211.835510 127.151443)"
	>,</text>
<text x="0" y="0" style="font-family:Liberation Serif,Times New Roman,serif; font-style:normal; font-weight:normal; font-size:135.888657px; fill:black" transform="matrix(1.000000 -0.000000 0.000000 1.000000 238.026077 127.151443)"
	>1</text>
<text x="0" y="0" style="font-family:Liberation Serif,Times New Roman,serif; font-style:normal; font-weight:normal; font-size:135.888657px; fill:black" transform="matrix(1.000000 -0.000000 0.000000 1.000000 439.847534 127.151443)"
	>1</text>
<text x="0" y="0" style="font-family:Liberation Serif,Times New Roman,serif; font-style:normal; font-weight:normal; font-size:135.888657px; fill:black" transform="matrix(1.000000 -0.000000 0.000000 1.000000 479.903717 127.151443)"
	>,</text>
<text x="0" y="0" style="font-family:Liberation Serif,Times New Roman,serif; font-style:italic; font-weight:normal; font-size:135.888657px; fill:black" transform="matrix(1.000000 -0.000000 0.000000 1.000000 0.000000 127.151443)"
	>t</text>
<text x="0" y="0" style="font-family:serif; font-style:normal; font-weight:normal; font-size:135.888657px; fill:black" transform="matrix(1.000000 -0.000000 0.000000 1.000000 44.678036 127.151443)"
	>∈</text>
<text x="0" y="0" style="font-family:serif; font-style:normal; font-weight:normal; font-size:135.888657px; fill:black" transform="matrix(1.000000 -0.000000 0.000000 1.000000 516.878662 127.151443)"
	>+</text>
<text x="0" y="0" style="font-family:serif; font-style:normal; font-weight:normal; font-size:135.888657px; fill:black" transform="matrix(1.000000 -0.000000 0.000000 1.000000 570.800415 127.151443)"
	>∞</text>
<text x="0" y="0" style="font-family:Liberation Serif,Times New Roman,serif; font-style:normal; font-weight:normal; font-size:135.888657px; fill:black" transform="matrix(1.000000 -0.000000 0.000000 1.000000 331.233704 127.151443)"
	>U</text>
</svg>
