<?xml version="1.0" standalone="no"?>
<!DOCTYPE svg PUBLIC "-//W3C//DTD SVG 20001102//EN"
"http://www.w3.org/TR/2000/CR-SVG-20001102/DTD/svg-20001102.dtd">
<svg xmlns="http://www.w3.org/2000/svg" width="768" height="172"
	xmlns:sodipodi="http://sodipodi.sourceforge.net/DTD/sodipodi-0.dtd">
<desc>wmf2svg</desc>
<text x="0" y="0" style="font-family:Liberation Serif,Times New Roman,serif; font-style:normal; font-weight:normal; font-size:85.664291px; fill:black" transform="matrix(1.000000 -0.000000 0.000000 1.000000 42.242546 152.297211)"
	>3</text>
<text x="0" y="0" style="font-family:Liberation Serif,Times New Roman,serif; font-style:normal; font-weight:normal; font-size:85.664291px; fill:black" transform="matrix(1.000000 -0.000000 0.000000 1.000000 225.972168 152.297211)"
	>4</text>
<text x="0" y="0" style="font-family:Liberation Serif,Times New Roman,serif; font-style:normal; font-weight:normal; font-size:85.664291px; fill:black" transform="matrix(1.000000 -0.000000 0.000000 1.000000 398.250488 152.297211)"
	>8</text>
<text x="0" y="0" style="font-family:Liberation Serif,Times New Roman,serif; font-style:normal; font-weight:normal; font-size:148.176071px; fill:black" transform="matrix(1.000000 -0.000000 0.000000 1.000000 523.705750 114.095573)"
	>1</text>
<text x="0" y="0" style="font-family:Liberation Serif,Times New Roman,serif; font-style:normal; font-weight:normal; font-size:148.176071px; fill:black" transform="matrix(1.000000 -0.000000 0.000000 1.000000 572.564636 114.095573)"
	>6</text>
<text x="0" y="0" style="font-family:Liberation Serif,Times New Roman,serif; font-style:italic; font-weight:normal; font-size:148.176071px; fill:black" transform="matrix(1.000000 -0.000000 0.000000 1.000000 0.000000 114.095573)"
	>b</text>
<text x="0" y="0" style="font-family:Liberation Serif,Times New Roman,serif; font-style:italic; font-weight:normal; font-size:148.176071px; fill:black" transform="matrix(1.000000 -0.000000 0.000000 1.000000 177.367798 114.095573)"
	>a</text>
<text x="0" y="0" style="font-family:Liberation Serif,Times New Roman,serif; font-style:italic; font-weight:normal; font-size:148.176071px; fill:black" transform="matrix(1.000000 -0.000000 0.000000 1.000000 352.190857 114.095573)"
	>a</text>
<text x="0" y="0" style="font-family:serif; font-style:normal; font-weight:normal; font-size:148.176071px; fill:black" transform="matrix(1.000000 -0.000000 0.000000 1.000000 101.025848 114.095573)"
	>=</text>
<text x="0" y="0" style="font-family:serif; font-style:normal; font-weight:normal; font-size:148.176071px; fill:black" transform="matrix(1.000000 -0.000000 0.000000 1.000000 280.429413 114.095573)"
	>+</text>
<text x="0" y="0" style="font-family:serif; font-style:normal; font-weight:normal; font-size:148.176071px; fill:black" transform="matrix(1.000000 -0.000000 0.000000 1.000000 458.051697 114.095573)"
	>=</text>
</svg>
