<?xml version="1.0" standalone="no"?>
<!DOCTYPE svg PUBLIC "-//W3C//DTD SVG 20001102//EN"
"http://www.w3.org/TR/2000/CR-SVG-20001102/DTD/svg-20001102.dtd">
<svg xmlns="http://www.w3.org/2000/svg" width="768" height="85"
	xmlns:sodipodi="http://sodipodi.sourceforge.net/DTD/sodipodi-0.dtd">
<desc>wmf2svg</desc>
<text x="0" y="0" style="font-family:serif; font-style:normal; font-weight:normal; font-size:60.017223px; fill:black" transform="matrix(1.000000 -0.000000 0.000000 1.000000 124.709297 59.826923)"
	>(</text>
<text x="0" y="0" style="font-family:serif; font-style:normal; font-weight:normal; font-size:60.017223px; fill:black" transform="matrix(1.000000 -0.000000 0.000000 1.000000 276.081726 59.826923)"
	>)</text>
<text x="0" y="0" style="font-family:serif; font-style:normal; font-weight:normal; font-size:84.414467px; fill:black" transform="matrix(1.000000 -0.000000 0.000000 1.000000 92.139748 65.584671)"
	>(</text>
<text x="0" y="0" style="font-family:serif; font-style:normal; font-weight:normal; font-size:84.414467px; fill:black" transform="matrix(1.000000 -0.000000 0.000000 1.000000 340.714569 64.999138)"
	>)</text>
<text x="0" y="0" style="font-family:Liberation Serif,Times New Roman,serif; font-style:normal; font-weight:normal; font-size:21.859932px; fill:black" transform="matrix(1.000000 -0.000000 0.000000 1.000000 287.472656 26.646669)"
	>2</text>
<text x="0" y="0" style="font-family:Liberation Serif,Times New Roman,serif; font-style:normal; font-weight:normal; font-size:21.859932px; fill:black" transform="matrix(1.000000 -0.000000 0.000000 1.000000 202.083054 37.674225)"
	>2</text>
<text x="0" y="0" style="font-family:Liberation Serif,Times New Roman,serif; font-style:normal; font-weight:normal; font-size:37.474167px; fill:black" transform="matrix(1.000000 -0.000000 0.000000 1.000000 24.806856 54.459530)"
	>c</text>
<text x="0" y="0" style="font-family:Liberation Serif,Times New Roman,serif; font-style:normal; font-weight:normal; font-size:37.474167px; fill:black" transform="matrix(1.000000 -0.000000 0.000000 1.000000 38.982201 54.459530)"
	>o</text>
<text x="0" y="0" style="font-family:Liberation Serif,Times New Roman,serif; font-style:normal; font-weight:normal; font-size:37.474167px; fill:black" transform="matrix(1.000000 -0.000000 0.000000 1.000000 55.182598 54.459530)"
	>s</text>
<text x="0" y="0" style="font-family:Liberation Serif,Times New Roman,serif; font-style:normal; font-weight:normal; font-size:37.474167px; fill:black" transform="matrix(1.000000 -0.000000 0.000000 1.000000 105.471329 54.459530)"
	>2</text>
<text x="0" y="0" style="font-family:Liberation Serif,Times New Roman,serif; font-style:normal; font-weight:normal; font-size:37.474167px; fill:black" transform="matrix(1.000000 -0.000000 0.000000 1.000000 138.040863 54.459530)"
	>2</text>
<text x="0" y="0" style="font-family:Liberation Serif,Times New Roman,serif; font-style:normal; font-weight:normal; font-size:37.474167px; fill:black" transform="matrix(1.000000 -0.000000 0.000000 1.000000 157.785095 54.459530)"
	>c</text>
<text x="0" y="0" style="font-family:Liberation Serif,Times New Roman,serif; font-style:normal; font-weight:normal; font-size:37.474167px; fill:black" transform="matrix(1.000000 -0.000000 0.000000 1.000000 171.960449 54.459530)"
	>o</text>
<text x="0" y="0" style="font-family:Liberation Serif,Times New Roman,serif; font-style:normal; font-weight:normal; font-size:37.474167px; fill:black" transform="matrix(1.000000 -0.000000 0.000000 1.000000 188.160843 54.459530)"
	>s</text>
<text x="0" y="0" style="font-family:Liberation Serif,Times New Roman,serif; font-style:normal; font-weight:normal; font-size:37.474167px; fill:black" transform="matrix(1.000000 -0.000000 0.000000 1.000000 260.725128 54.459530)"
	>1</text>
<text x="0" y="0" style="font-family:Liberation Serif,Times New Roman,serif; font-style:normal; font-weight:normal; font-size:37.474167px; fill:black" transform="matrix(1.000000 -0.000000 0.000000 1.000000 325.357941 54.459530)"
	>1</text>
<text x="0" y="0" style="font-family:Liberation Serif,Times New Roman,serif; font-style:normal; font-weight:normal; font-size:37.474167px; fill:black" transform="matrix(1.000000 -0.000000 0.000000 1.000000 378.684235 54.459530)"
	>s</text>
<text x="0" y="0" style="font-family:Liberation Serif,Times New Roman,serif; font-style:normal; font-weight:normal; font-size:37.474167px; fill:black" transform="matrix(1.000000 -0.000000 0.000000 1.000000 391.340790 54.459530)"
	>i</text>
<text x="0" y="0" style="font-family:Liberation Serif,Times New Roman,serif; font-style:normal; font-weight:normal; font-size:37.474167px; fill:black" transform="matrix(1.000000 -0.000000 0.000000 1.000000 400.453522 54.459530)"
	>n</text>
<text x="0" y="0" style="font-family:Liberation Serif,Times New Roman,serif; font-style:normal; font-weight:normal; font-size:37.474167px; fill:black" transform="matrix(1.000000 -0.000000 0.000000 1.000000 454.623596 54.459530)"
	>2</text>
<text x="0" y="0" style="font-family:Liberation Serif,Times New Roman,serif; font-style:normal; font-weight:normal; font-size:37.474167px; fill:black" transform="matrix(1.000000 -0.000000 0.000000 1.000000 486.518127 54.459530)"
	>2</text>
<text x="0" y="0" style="font-family:Liberation Serif,Times New Roman,serif; font-style:normal; font-weight:normal; font-size:37.474167px; fill:black" transform="matrix(1.000000 -0.000000 0.000000 1.000000 505.756104 54.459530)"
	>s</text>
<text x="0" y="0" style="font-family:Liberation Serif,Times New Roman,serif; font-style:normal; font-weight:normal; font-size:37.474167px; fill:black" transform="matrix(1.000000 -0.000000 0.000000 1.000000 518.412659 54.459530)"
	>i</text>
<text x="0" y="0" style="font-family:Liberation Serif,Times New Roman,serif; font-style:normal; font-weight:normal; font-size:37.474167px; fill:black" transform="matrix(1.000000 -0.000000 0.000000 1.000000 527.525391 54.459530)"
	>n</text>
<text x="0" y="0" style="font-family:Liberation Serif,Times New Roman,serif; font-style:normal; font-weight:normal; font-size:37.474167px; fill:black" transform="matrix(1.000000 -0.000000 0.000000 1.000000 569.545166 54.459530)"
	>c</text>
<text x="0" y="0" style="font-family:Liberation Serif,Times New Roman,serif; font-style:normal; font-weight:normal; font-size:37.474167px; fill:black" transform="matrix(1.000000 -0.000000 0.000000 1.000000 583.720520 54.459530)"
	>o</text>
<text x="0" y="0" style="font-family:Liberation Serif,Times New Roman,serif; font-style:normal; font-weight:normal; font-size:37.474167px; fill:black" transform="matrix(1.000000 -0.000000 0.000000 1.000000 599.920898 54.459530)"
	>s</text>
<text x="0" y="0" style="font-family:Liberation Serif,Times New Roman,serif; font-style:normal; font-weight:normal; font-size:37.474167px; fill:black" transform="matrix(1.000000 -0.000000 0.000000 1.000000 637.384338 54.459530)"
	>c</text>
<text x="0" y="0" style="font-family:Liberation Serif,Times New Roman,serif; font-style:normal; font-weight:normal; font-size:37.474167px; fill:black" transform="matrix(1.000000 -0.000000 0.000000 1.000000 651.559631 54.459530)"
	>o</text>
<text x="0" y="0" style="font-family:Liberation Serif,Times New Roman,serif; font-style:normal; font-weight:normal; font-size:37.474167px; fill:black" transform="matrix(1.000000 -0.000000 0.000000 1.000000 667.760071 54.459530)"
	>s</text>
<text x="0" y="0" style="font-family:Liberation Serif,Times New Roman,serif; font-style:normal; font-weight:normal; font-size:37.474167px; fill:black" transform="matrix(1.000000 -0.000000 0.000000 1.000000 684.972961 54.459530)"
	>2</text>
<text x="0" y="0" style="font-family:Liberation Serif,Times New Roman,serif; font-style:italic; font-weight:normal; font-size:37.474167px; fill:black" transform="matrix(1.000000 -0.000000 0.000000 1.000000 73.914307 54.459530)"
	>x</text>
<text x="0" y="0" style="font-family:Liberation Serif,Times New Roman,serif; font-style:italic; font-weight:normal; font-size:37.474167px; fill:black" transform="matrix(1.000000 -0.000000 0.000000 1.000000 220.730392 54.459530)"
	>x</text>
<text x="0" y="0" style="font-family:Liberation Serif,Times New Roman,serif; font-style:italic; font-weight:normal; font-size:37.474167px; fill:black" transform="matrix(1.000000 -0.000000 0.000000 1.000000 423.741608 54.459530)"
	>x</text>
<text x="0" y="0" style="font-family:Liberation Serif,Times New Roman,serif; font-style:italic; font-weight:normal; font-size:37.474167px; fill:black" transform="matrix(1.000000 -0.000000 0.000000 1.000000 550.813477 54.459530)"
	>x</text>
<text x="0" y="0" style="font-family:Liberation Serif,Times New Roman,serif; font-style:italic; font-weight:normal; font-size:37.474167px; fill:black" transform="matrix(1.000000 -0.000000 0.000000 1.000000 618.652588 54.459530)"
	>x</text>
<text x="0" y="0" style="font-family:Liberation Serif,Times New Roman,serif; font-style:italic; font-weight:normal; font-size:37.474167px; fill:black" transform="matrix(1.000000 -0.000000 0.000000 1.000000 703.198425 54.459530)"
	>x</text>
<text x="0" y="0" style="font-family:serif; font-style:normal; font-weight:normal; font-size:37.474167px; fill:black" transform="matrix(1.000000 -0.000000 0.000000 1.000000 0.000000 54.459530)"
	>=</text>
<text x="0" y="0" style="font-family:serif; font-style:normal; font-weight:normal; font-size:37.474167px; fill:black" transform="matrix(1.000000 -0.000000 0.000000 1.000000 240.980881 54.459530)"
	>−</text>
<text x="0" y="0" style="font-family:serif; font-style:normal; font-weight:normal; font-size:37.474167px; fill:black" transform="matrix(1.000000 -0.000000 0.000000 1.000000 305.613708 54.459530)"
	>−</text>
<text x="0" y="0" style="font-family:serif; font-style:normal; font-weight:normal; font-size:37.474167px; fill:black" transform="matrix(1.000000 -0.000000 0.000000 1.000000 356.408691 54.459530)"
	>−</text>
<text x="0" y="0" style="font-family:serif; font-style:normal; font-weight:normal; font-size:37.474167px; fill:black" transform="matrix(1.000000 -0.000000 0.000000 1.000000 442.473297 54.459530)"
	>⋅</text>
<text x="0" y="0" style="font-family:serif; font-style:normal; font-weight:normal; font-size:37.474167px; fill:black" transform="matrix(1.000000 -0.000000 0.000000 1.000000 474.367828 54.459530)"
	>⋅</text>
</svg>
