<?xml version="1.0" standalone="no"?>
<!DOCTYPE svg PUBLIC "-//W3C//DTD SVG 20001102//EN"
"http://www.w3.org/TR/2000/CR-SVG-20001102/DTD/svg-20001102.dtd">
<svg xmlns="http://www.w3.org/2000/svg" width="768" height="78"
	xmlns:sodipodi="http://sodipodi.sourceforge.net/DTD/sodipodi-0.dtd">
<desc>wmf2svg</desc>
<text x="0" y="0" style="font-family:Liberation Serif,Times New Roman,serif; font-style:normal; font-weight:normal; font-size:35.123734px; fill:black" transform="matrix(1.000000 -0.000000 0.000000 1.000000 503.574066 27.045275)"
	>2</text>
<text x="0" y="0" style="font-family:Liberation Serif,Times New Roman,serif; font-style:normal; font-weight:normal; font-size:35.123734px; fill:black" transform="matrix(1.000000 -0.000000 0.000000 1.000000 119.945786 69.921539)"
	>3</text>
<text x="0" y="0" style="font-family:Liberation Serif,Times New Roman,serif; font-style:normal; font-weight:normal; font-size:35.123734px; fill:black" transform="matrix(1.000000 -0.000000 0.000000 1.000000 268.638916 69.921539)"
	>2</text>
<text x="0" y="0" style="font-family:Liberation Serif,Times New Roman,serif; font-style:normal; font-weight:normal; font-size:35.123734px; fill:black" transform="matrix(1.000000 -0.000000 0.000000 1.000000 351.163605 69.921539)"
	>3</text>
<text x="0" y="0" style="font-family:Liberation Serif,Times New Roman,serif; font-style:normal; font-weight:normal; font-size:35.123734px; fill:black" transform="matrix(1.000000 -0.000000 0.000000 1.000000 708.027100 69.921539)"
	>3</text>
<text x="0" y="0" style="font-family:Liberation Serif,Times New Roman,serif; font-style:normal; font-weight:normal; font-size:60.754562px; fill:black" transform="matrix(1.000000 -0.000000 0.000000 1.000000 0.000000 54.258255)"
	>C</text>
<text x="0" y="0" style="font-family:Liberation Serif,Times New Roman,serif; font-style:normal; font-weight:normal; font-size:60.754562px; fill:black" transform="matrix(1.000000 -0.000000 0.000000 1.000000 31.969023 54.258255)"
	>a</text>
<text x="0" y="0" style="font-family:Liberation Serif,Times New Roman,serif; font-style:normal; font-weight:normal; font-size:60.754562px; fill:black" transform="matrix(1.000000 -0.000000 0.000000 1.000000 52.786060 54.258255)"
	>C</text>
<text x="0" y="0" style="font-family:Liberation Serif,Times New Roman,serif; font-style:normal; font-weight:normal; font-size:60.754562px; fill:black" transform="matrix(1.000000 -0.000000 0.000000 1.000000 84.755081 54.258255)"
	>O</text>
<text x="0" y="0" style="font-family:Liberation Serif,Times New Roman,serif; font-style:normal; font-weight:normal; font-size:60.754562px; fill:black" transform="matrix(1.000000 -0.000000 0.000000 1.000000 138.160690 54.258255)"
	>(</text>
<text x="0" y="0" style="font-family:Liberation Serif,Times New Roman,serif; font-style:normal; font-weight:normal; font-size:60.754562px; fill:black" transform="matrix(1.000000 -0.000000 0.000000 1.000000 153.773468 54.258255)"
	>s</text>
<text x="0" y="0" style="font-family:Liberation Serif,Times New Roman,serif; font-style:normal; font-weight:normal; font-size:60.754562px; fill:black" transform="matrix(1.000000 -0.000000 0.000000 1.000000 173.103577 54.258255)"
	>)</text>
<text x="0" y="0" style="font-family:Liberation Serif,Times New Roman,serif; font-style:normal; font-weight:normal; font-size:60.754562px; fill:black" transform="matrix(1.000000 -0.000000 0.000000 1.000000 231.837372 54.258255)"
	>H</text>
<text x="0" y="0" style="font-family:Liberation Serif,Times New Roman,serif; font-style:normal; font-weight:normal; font-size:60.754562px; fill:black" transform="matrix(1.000000 -0.000000 0.000000 1.000000 284.003876 54.258255)"
	>C</text>
<text x="0" y="0" style="font-family:Liberation Serif,Times New Roman,serif; font-style:normal; font-weight:normal; font-size:60.754562px; fill:black" transform="matrix(1.000000 -0.000000 0.000000 1.000000 315.972900 54.258255)"
	>O</text>
<text x="0" y="0" style="font-family:Liberation Serif,Times New Roman,serif; font-style:normal; font-weight:normal; font-size:60.754562px; fill:black" transform="matrix(1.000000 -0.000000 0.000000 1.000000 446.698944 54.258255)"
	>C</text>
<text x="0" y="0" style="font-family:Liberation Serif,Times New Roman,serif; font-style:normal; font-weight:normal; font-size:60.754562px; fill:black" transform="matrix(1.000000 -0.000000 0.000000 1.000000 478.667969 54.258255)"
	>a</text>
<text x="0" y="0" style="font-family:Liberation Serif,Times New Roman,serif; font-style:normal; font-weight:normal; font-size:60.754562px; fill:black" transform="matrix(1.000000 -0.000000 0.000000 1.000000 582.133606 54.258255)"
	>2</text>
<text x="0" y="0" style="font-family:Liberation Serif,Times New Roman,serif; font-style:normal; font-weight:normal; font-size:60.754562px; fill:black" transform="matrix(1.000000 -0.000000 0.000000 1.000000 606.667969 54.258255)"
	>H</text>
<text x="0" y="0" style="font-family:Liberation Serif,Times New Roman,serif; font-style:normal; font-weight:normal; font-size:60.754562px; fill:black" transform="matrix(1.000000 -0.000000 0.000000 1.000000 640.867371 54.258255)"
	>C</text>
<text x="0" y="0" style="font-family:Liberation Serif,Times New Roman,serif; font-style:normal; font-weight:normal; font-size:60.754562px; fill:black" transform="matrix(1.000000 -0.000000 0.000000 1.000000 672.836426 54.258255)"
	>O</text>
<text x="0" y="0" style="font-family:serif; font-style:normal; font-weight:normal; font-size:35.123734px; fill:black" transform="matrix(1.000000 -0.000000 0.000000 1.000000 518.567261 27.045275)"
	>+</text>
<text x="0" y="0" style="font-family:serif; font-style:normal; font-weight:normal; font-size:35.123734px; fill:black" transform="matrix(1.000000 -0.000000 0.000000 1.000000 708.894470 27.045275)"
	>−</text>
<text x="0" y="0" style="font-family:serif; font-style:normal; font-weight:normal; font-size:60.754562px; fill:black" transform="matrix(1.000000 -0.000000 0.000000 1.000000 196.894485 54.258255)"
	>+</text>
<text x="0" y="0" style="font-family:serif; font-style:normal; font-weight:normal; font-size:60.754562px; fill:black" transform="matrix(1.000000 -0.000000 0.000000 1.000000 547.190735 54.258255)"
	>+</text>
<text x="0" y="0" style="font-family:Liberation Serif,Times New Roman,serif; font-style:normal; font-weight:normal; font-size:60.754562px; fill:black" transform="matrix(1.000000 -0.000000 0.000000 1.000000 379.787018 54.258255)"
	></text>
</svg>
