<?xml version="1.0" standalone="no"?>
<!DOCTYPE svg PUBLIC "-//W3C//DTD SVG 20001102//EN"
"http://www.w3.org/TR/2000/CR-SVG-20001102/DTD/svg-20001102.dtd">
<svg xmlns="http://www.w3.org/2000/svg" width="768" height="286"
	xmlns:sodipodi="http://sodipodi.sourceforge.net/DTD/sodipodi-0.dtd">
<desc>wmf2svg</desc>
<text x="0" y="0" style="font-family:Liberation Serif,Times New Roman,serif; font-style:normal; font-weight:normal; font-size:93.486969px; fill:black" transform="matrix(1.000000 -0.000000 0.000000 1.000000 204.649414 264.498016)"
	>3</text>
<text x="0" y="0" style="font-family:Liberation Serif,Times New Roman,serif; font-style:normal; font-weight:normal; font-size:93.486969px; fill:black" transform="matrix(1.000000 -0.000000 0.000000 1.000000 623.435303 264.498016)"
	>2</text>
<text x="0" y="0" style="font-family:Liberation Serif,Times New Roman,serif; font-style:normal; font-weight:normal; font-size:130.881760px; fill:black" transform="matrix(1.000000 -0.000000 0.000000 1.000000 73.637650 230.608978)"
	>S</text>
<text x="0" y="0" style="font-family:Liberation Serif,Times New Roman,serif; font-style:normal; font-weight:normal; font-size:130.881760px; fill:black" transform="matrix(1.000000 -0.000000 0.000000 1.000000 130.559998 230.608978)"
	>O</text>
<text x="0" y="0" style="font-family:Liberation Serif,Times New Roman,serif; font-style:normal; font-weight:normal; font-size:130.881760px; fill:black" transform="matrix(1.000000 -0.000000 0.000000 1.000000 490.164703 230.608978)"
	>S</text>
<text x="0" y="0" style="font-family:Liberation Serif,Times New Roman,serif; font-style:normal; font-weight:normal; font-size:130.881760px; fill:black" transform="matrix(1.000000 -0.000000 0.000000 1.000000 547.087036 230.608978)"
	>O</text>
<text x="0" y="0" style="font-family:Liberation Serif,Times New Roman,serif; font-style:italic; font-weight:normal; font-size:224.368729px; fill:black" transform="matrix(1.000000 -0.000000 0.000000 1.000000 0.000000 172.763916)"
	>P</text>
<text x="0" y="0" style="font-family:Liberation Serif,Times New Roman,serif; font-style:italic; font-weight:normal; font-size:224.368729px; fill:black" transform="matrix(1.000000 -0.000000 0.000000 1.000000 416.527069 172.763916)"
	>P</text>
<text x="0" y="0" style="font-family:Liberation Serif,Times New Roman,serif; font-style:normal; font-weight:normal; font-size:224.368729px; fill:black" transform="matrix(1.000000 -0.000000 0.000000 1.000000 243.049408 172.763916)"
	>¡</text>
<text x="0" y="0" style="font-family:Liberation Serif,Times New Roman,serif; font-style:normal; font-weight:normal; font-size:224.368729px; fill:black" transform="matrix(1.000000 -0.000000 0.000000 1.000000 590.004700 172.763916)"
	>¢</text>
</svg>
