<?xml version="1.0" standalone="no"?>
<!DOCTYPE svg PUBLIC "-//W3C//DTD SVG 20001102//EN"
"http://www.w3.org/TR/2000/CR-SVG-20001102/DTD/svg-20001102.dtd">
<svg xmlns="http://www.w3.org/2000/svg" width="768" height="238"
	xmlns:sodipodi="http://sodipodi.sourceforge.net/DTD/sodipodi-0.dtd">
<desc>wmf2svg</desc>
<text x="0" y="0" style="font-family:Liberation Serif,Times New Roman,serif; font-style:normal; font-weight:normal; font-size:118.535469px; fill:black" transform="matrix(1.000000 -0.000000 0.000000 1.000000 122.333015 210.736847)"
	>1</text>
<text x="0" y="0" style="font-family:Liberation Serif,Times New Roman,serif; font-style:normal; font-weight:normal; font-size:118.535469px; fill:black" transform="matrix(1.000000 -0.000000 0.000000 1.000000 210.294510 210.736847)"
	>x</text>
<text x="0" y="0" style="font-family:Liberation Serif,Times New Roman,serif; font-style:normal; font-weight:normal; font-size:118.535469px; fill:black" transform="matrix(1.000000 -0.000000 0.000000 1.000000 590.968262 210.736847)"
	>4</text>
<text x="0" y="0" style="font-family:Liberation Serif,Times New Roman,serif; font-style:normal; font-weight:normal; font-size:205.034332px; fill:black" transform="matrix(1.000000 -0.000000 0.000000 1.000000 0.000000 157.876434)"
	>L</text>
<text x="0" y="0" style="font-family:Liberation Serif,Times New Roman,serif; font-style:normal; font-weight:normal; font-size:205.034332px; fill:black" transform="matrix(1.000000 -0.000000 0.000000 1.000000 85.004814 157.876434)"
	>i</text>
<text x="0" y="0" style="font-family:Liberation Serif,Times New Roman,serif; font-style:normal; font-weight:normal; font-size:205.034332px; fill:black" transform="matrix(1.000000 -0.000000 0.000000 1.000000 262.406158 157.876434)"
	>F</text>
<text x="0" y="0" style="font-family:Liberation Serif,Times New Roman,serif; font-style:normal; font-weight:normal; font-size:205.034332px; fill:black" transform="matrix(1.000000 -0.000000 0.000000 1.000000 340.388824 157.876434)"
	>e</text>
<text x="0" y="0" style="font-family:Liberation Serif,Times New Roman,serif; font-style:normal; font-weight:normal; font-size:205.034332px; fill:black" transform="matrix(1.000000 -0.000000 0.000000 1.000000 404.327240 157.876434)"
	>P</text>
<text x="0" y="0" style="font-family:Liberation Serif,Times New Roman,serif; font-style:normal; font-weight:normal; font-size:205.034332px; fill:black" transform="matrix(1.000000 -0.000000 0.000000 1.000000 484.157837 157.876434)"
	>O</text>
<text x="0" y="0" style="font-family:serif; font-style:normal; font-weight:normal; font-size:118.535469px; fill:black" transform="matrix(1.000000 -0.000000 0.000000 1.000000 160.769974 210.736847)"
	>−</text>
</svg>
