<?xml version="1.0" standalone="no"?>
<!DOCTYPE svg PUBLIC "-//W3C//DTD SVG 20001102//EN"
"http://www.w3.org/TR/2000/CR-SVG-20001102/DTD/svg-20001102.dtd">
<svg xmlns="http://www.w3.org/2000/svg" width="768" height="192"
	xmlns:sodipodi="http://sodipodi.sourceforge.net/DTD/sodipodi-0.dtd">
<desc>wmf2svg</desc>
<text x="0" y="0" style="font-family:Liberation Serif,Times New Roman,serif; font-style:normal; font-weight:normal; font-size:96.387268px; fill:black" transform="matrix(1.000000 -0.000000 0.000000 1.000000 49.147263 169.830917)"
	>1</text>
<text x="0" y="0" style="font-family:Liberation Serif,Times New Roman,serif; font-style:normal; font-weight:normal; font-size:96.387268px; fill:black" transform="matrix(1.000000 -0.000000 0.000000 1.000000 371.861206 169.830917)"
	>1</text>
<text x="0" y="0" style="font-family:Liberation Serif,Times New Roman,serif; font-style:normal; font-weight:normal; font-size:96.387268px; fill:black" transform="matrix(1.000000 -0.000000 0.000000 1.000000 595.984558 169.830917)"
	>0</text>
<text x="0" y="0" style="font-family:Liberation Serif,Times New Roman,serif; font-style:italic; font-weight:normal; font-size:165.235321px; fill:black" transform="matrix(1.000000 -0.000000 0.000000 1.000000 0.000000 127.231194)"
	>p</text>
<text x="0" y="0" style="font-family:Liberation Serif,Times New Roman,serif; font-style:italic; font-weight:normal; font-size:165.235321px; fill:black" transform="matrix(1.000000 -0.000000 0.000000 1.000000 271.198151 127.231194)"
	>g</text>
<text x="0" y="0" style="font-family:Liberation Serif,Times New Roman,serif; font-style:italic; font-weight:normal; font-size:165.235321px; fill:black" transform="matrix(1.000000 -0.000000 0.000000 1.000000 328.043182 127.231194)"
	>h</text>
<text x="0" y="0" style="font-family:Liberation Serif,Times New Roman,serif; font-style:italic; font-weight:normal; font-size:165.235321px; fill:black" transform="matrix(1.000000 -0.000000 0.000000 1.000000 540.619873 127.231194)"
	>p</text>
<text x="0" y="0" style="font-family:serif; font-style:normal; font-weight:normal; font-size:165.235321px; fill:black" transform="matrix(1.000000 -0.000000 0.000000 1.000000 194.812637 127.231194)"
	>ρ</text>
<text x="0" y="0" style="font-family:serif; font-style:normal; font-weight:normal; font-size:165.235321px; fill:black" transform="matrix(1.000000 -0.000000 0.000000 1.000000 107.768700 127.231194)"
	>+</text>
<text x="0" y="0" style="font-family:serif; font-style:normal; font-weight:normal; font-size:165.235321px; fill:black" transform="matrix(1.000000 -0.000000 0.000000 1.000000 437.588287 127.231194)"
	>=</text>
</svg>
