<?xml version="1.0" standalone="no"?>
<!DOCTYPE svg PUBLIC "-//W3C//DTD SVG 20001102//EN"
"http://www.w3.org/TR/2000/CR-SVG-20001102/DTD/svg-20001102.dtd">
<svg xmlns="http://www.w3.org/2000/svg" width="768" height="251"
	xmlns:sodipodi="http://sodipodi.sourceforge.net/DTD/sodipodi-0.dtd">
<desc>wmf2svg</desc>
<text x="0" y="0" style="font-family:Liberation Serif,Times New Roman,serif; font-style:normal; font-weight:normal; font-size:125.010101px; fill:black" transform="matrix(1.000000 -0.000000 0.000000 1.000000 45.796497 222.247681)"
	>1</text>
<text x="0" y="0" style="font-family:Liberation Serif,Times New Roman,serif; font-style:normal; font-weight:normal; font-size:125.010101px; fill:black" transform="matrix(1.000000 -0.000000 0.000000 1.000000 291.498352 222.247681)"
	>3</text>
<text x="0" y="0" style="font-family:Liberation Serif,Times New Roman,serif; font-style:normal; font-weight:normal; font-size:125.010101px; fill:black" transform="matrix(1.000000 -0.000000 0.000000 1.000000 543.379089 222.247681)"
	>2</text>
<text x="0" y="0" style="font-family:Liberation Serif,Times New Roman,serif; font-style:italic; font-weight:normal; font-size:216.233688px; fill:black" transform="matrix(1.000000 -0.000000 0.000000 1.000000 0.000000 166.499939)"
	>I</text>
<text x="0" y="0" style="font-family:Liberation Serif,Times New Roman,serif; font-style:italic; font-weight:normal; font-size:216.233688px; fill:black" transform="matrix(1.000000 -0.000000 0.000000 1.000000 239.522949 166.499939)"
	>I</text>
<text x="0" y="0" style="font-family:Liberation Serif,Times New Roman,serif; font-style:italic; font-weight:normal; font-size:216.233688px; fill:black" transform="matrix(1.000000 -0.000000 0.000000 1.000000 488.859436 166.499939)"
	>I</text>
<text x="0" y="0" style="font-family:serif; font-style:normal; font-weight:normal; font-size:216.233688px; fill:black" transform="matrix(1.000000 -0.000000 0.000000 1.000000 126.122101 166.499939)"
	>></text>
<text x="0" y="0" style="font-family:serif; font-style:normal; font-weight:normal; font-size:216.233688px; fill:black" transform="matrix(1.000000 -0.000000 0.000000 1.000000 375.458588 166.499939)"
	>></text>
</svg>
